<svg preserveAspectRatio="xMidYMid meet" data-bbox="79.189 79.191 41.62 41.622" viewBox="79.189 79.191 41.62 41.622" height="200" width="200" xmlns="http://www.w3.org/2000/svg" data-type="shape" role="img" aria-label="Homepage">
    <g>
        <path d="M118.557 101.096l-5.709 5.709a4.532 4.532 0 0 0-1.895-.417c-.388 0-.763.054-1.123.146a14.199 14.199 0 0 1-.083-13.089c.385.106.788.167 1.206.167.676 0 1.317-.152 1.894-.417l5.709 5.709 2.253-2.253-5.709-5.709a4.531 4.531 0 0 0 .417-1.894 4.57 4.57 0 0 0-4.564-4.565c-.676 0-1.317.152-1.895.417l-5.709-5.709-2.253 2.253 5.709 5.709a4.532 4.532 0 0 0-.417 1.895c0 .411.06.808.162 1.187a14.057 14.057 0 0 1-6.477 1.57c-2.34 0-4.594-.567-6.607-1.635.091-.36.145-.734.145-1.122 0-.676-.152-1.317-.417-1.894l5.709-5.709-2.253-2.253-5.708 5.708a4.532 4.532 0 0 0-1.895-.417 4.57 4.57 0 0 0-4.565 4.565c0 .676.152 1.317.417 1.895l-5.709 5.709 2.253 2.253 5.709-5.709a4.531 4.531 0 0 0 3.23.217 14.195 14.195 0 0 1-.085 13.155 4.535 4.535 0 0 0-1.251-.179c-.676 0-1.317.152-1.895.417l-5.709-5.709-2.253 2.253 5.709 5.71a4.532 4.532 0 0 0-.417 1.895 4.57 4.57 0 0 0 4.565 4.565c.676 0 1.317-.152 1.895-.417l5.709 5.709 2.253-2.253-5.709-5.709a4.532 4.532 0 0 0 .23-3.179 14.053 14.053 0 0 1 6.649-1.656c2.307 0 4.529.553 6.519 1.591a4.536 4.536 0 0 0 .213 3.245l-5.709 5.709 2.253 2.253 5.709-5.709a4.532 4.532 0 0 0 1.895.417 4.57 4.57 0 0 0 4.564-4.565c0-.676-.152-1.317-.417-1.895l5.709-5.71-2.252-2.255zm-7.604-13.427c.76 0 1.378.618 1.378 1.378s-.618 1.378-1.378 1.378-1.378-.618-1.378-1.378.618-1.378 1.378-1.378zm-21.906 2.757c-.76 0-1.378-.618-1.378-1.378s.618-1.378 1.378-1.378 1.378.618 1.378 1.378-.618 1.378-1.378 1.378zm0 21.905c-.76 0-1.378-.618-1.378-1.378s.618-1.378 1.378-1.378 1.378.618 1.378 1.378-.618 1.378-1.378 1.378zm17.012-6.446c-1.892-.696-3.911-1.059-5.986-1.059s-4.094.363-5.986 1.059a17.429 17.429 0 0 0 0-11.953c1.892.696 3.911 1.059 5.986 1.059s4.094-.363 5.986-1.059a17.429 17.429 0 0 0 0 11.953zm4.894 6.446c-.76 0-1.378-.618-1.378-1.378s.618-1.378 1.378-1.378 1.378.618 1.378 1.378-.618 1.378-1.378 1.378z"></path>
    </g>
</svg>